<svg id="Layer_1" data-name="Layer 1" xmlns="http://www.w3.org/2000/svg" xmlns:xlink="http://www.w3.org/1999/xlink" width="124.9" height="92.39" viewBox="0 0 124.9 92.39"><defs><style>.cls-1{fill:none;}.cls-2{fill:url(#linear-gradient);}.cls-3{fill:#fff;}</style><linearGradient id="linear-gradient" x1="-295.7" y1="453.92" x2="-293.18" y2="453.92" gradientTransform="matrix(49.56, 0, 0, -36.66, 14653.66, 16686.3)" gradientUnits="userSpaceOnUse"><stop offset="0" stop-color="#028c95"/><stop offset="1" stop-color="#89c141"/></linearGradient></defs><title>howie</title><path id="Clip-28" class="cls-1" d="M.68,0C.16,0,0,.42,0,1.11H0c0,1,.77,40.77.77,40.77h0s0,2.41,1.53.77h0L10,34.39h0s1.28-1.81,2.3-.26h0c1,1.55,13,17.8,13,17.8h0s-1.54,3.1-6.4,2.84h0a28.88,28.88,0,0,0,.54-4h0c0-1.33-1.07-3.51-3.29-3h0c-2.23.52-1.71,2.22-.49,4h0c1.21,1.76.49,2.33-.16,2.49h0c-.66.16-1.42-1.06-1.69-2.2h0c-.27-1.14-1.19-4.56-3.35-2.75h0c-2.16,1.81.47,2.83,1.17,4.34h0c.7,1.51,1.23,2.67-.09,2.5h0C10.24,56,8.81,53.47,7.5,53.31h0c-1.32-.16-5,2,2.42,4.51h0c.84.29,2.08,1.24.76,1.9h0a1.77,1.77,0,0,1-1.59.08h0a1.83,1.83,0,0,0-1.21-.08h0c-1.15.33-1.81,1.33-1.15,2.32h0c.66,1,3.14,1,4.46.3h0c1.32-.66,2.28-1.08,2.85-1.94h0c.57-.86.82-1.16,2.14-.66h0c1.32.5,3.33,1.89,6.42,1.83h0A10.53,10.53,0,0,0,29.69,58h0c.83-1.2,1.64-2.22,2.63-.89h0c1,1.33,12.52,12.46,38.38,8.47h0a3.44,3.44,0,0,1,4.12,3.16h0a17.24,17.24,0,0,0,6.52,11.76h0c1.79,1.32,1.58,2.26.27,4.42h0c-1.32,2.16.23,6.32,1.39,6.58h0c1.83.41,1.78-2.68,1.61-3.51h0c-.16-.83-.6-3.2.75-3.31h0c1.35-.11,1.32,1.83,1.32,3.49h0c0,1.66-.33,3.16,1.15,3.82h0c1.48.66,3,.75,3.38-1.37h0c.41-2.12-.51-2.44-1.18-3.42h0c-.67-1-1.51-2-.2-2.93h0c1.32-.91,1.52,1.46,3.45,2.74h0c1.92,1.29,3.57-1,2.14-2.82h0C94,82.31,91.78,82,91.78,81h0c0-1,.68-.68,2.65-.9h0c1.2-.14,2.61-.5,2.14-2.39h0c-.36-2-1.94-1.52-6,.23h0c-3.66,1.58-4.88-3.26-4.88-4.75h0c0-1.5-.17-3-.19-6.56h0c0-3.56.66-3.61,2.83-3.57h0c9,.13,16.64.92,35,22.08h0c1.31,1.51,1.82,1.54,1.36-1.65h0c-.58-4-7.17-28.48-27.51-35.55h0c-.92-.32-3-.5-1-5.65h0c2-5.15-2.63-12.79-2.8-13.29h0c-.16-.5-.33-1.16,1.32-2h0c1.65-.83,2.75-1.47,2.45-4.23h0c-.25-2.28-2.52-2.44-3.77-1.39h0c-1.25,1-.56,3.77-1.65,3.63h0c-1.09-.13-.58-1.49-.36-3.6h0c.23-2.11-2-2.73-3.49-1.73h0c-1.5,1-1.24,2.9-.58,4.06h0c.66,1.16,2.07,1.84,1,2.93h0c-1.1,1.1-2.43-1-2.79-2h0c-.66-1.84-2.38-3.9-4.77-1.2h0c-1.9,2.15.92,2.84,2.79,3.92h0c1.87,1.09,1.8,2.81.49,2.81h0c-1.32,0-2.9-2.58-4,0h0a2.38,2.38,0,0,0,2.45,3.19h0c1.65-.33,3.33-1.38,5-.88h0c1.65.5,1.65,2,1.15,3.16h0c-.49,1.16-4.45,8.64-4.45,8.64h0s-.16.66-3.13.83h0c-3,.17-17.79,1.5-25.7-1h0c-7.91-2.49-7.91-3-6.42-4.82h0c1.48-1.83,2.8-4,4.61-3.49h0a9.54,9.54,0,0,1,4.64,3.91h0c.87,1.44,2.87,2.11,3.72.72h0c.78-1.28-1.45-2.22-2.1-2.81h0c-.65-.59-.82-1.49.66-1.49h0c1.48,0,3,1,4.13.87h0a1.63,1.63,0,0,0,1.14-2.63h0C65,33.1,62.32,33.31,61.15,33h0c-1.18-.3,0-1.45,3.46-1.83h0c3-.33,1.43-6-1.61-3.31h0c-1.23,1.07-1.51,1.48-2.5,1.81h0c-1,.33-1.79-.62-1-1.62h0c.82-1,2.9-1.6,2.48-2.75h0a1.86,1.86,0,0,0-3-.79h0c-1.59,1.2-2.71,1.65-2.88,3.8h0c-.09,1.14-.65,2-3.12,1.83h0c-2.47-.17-3.67-.56-5.72,1.51h0c-1.16,1.17-3,2.66-3.79,3.32h0c-.75.66-2.31.5-3.46-1h0C38.91,32.51,28.2,23,28.2,23h0a1.46,1.46,0,0,1,.49-2.33h0c1.65-1,8.5-3.94,9.72-4.49h0c2.05-.92,2.35-1.41.66-2h0C36.25,13.27,3.22,1,1.79.33h0A2.78,2.78,0,0,0,.71,0h0Z"/><path id="Fill-27" class="cls-2" d="M.68,0C.16,0,0,.42,0,1.11H0c0,1,.77,40.77.77,40.77h0s0,2.41,1.53.77h0L10,34.39h0s1.28-1.81,2.3-.26h0c1,1.55,13,17.8,13,17.8h0s-1.54,3.1-6.4,2.84h0a28.88,28.88,0,0,0,.54-4h0c0-1.33-1.07-3.51-3.29-3h0c-2.23.52-1.71,2.22-.49,4h0c1.21,1.76.49,2.33-.16,2.49h0c-.66.16-1.42-1.06-1.69-2.2h0c-.27-1.14-1.19-4.56-3.35-2.75h0c-2.16,1.81.47,2.83,1.17,4.34h0c.7,1.51,1.23,2.67-.09,2.5h0C10.24,56,8.81,53.47,7.5,53.31h0c-1.32-.16-5,2,2.42,4.51h0c.84.29,2.08,1.24.76,1.9h0a1.77,1.77,0,0,1-1.59.08h0a1.83,1.83,0,0,0-1.21-.08h0c-1.15.33-1.81,1.33-1.15,2.32h0c.66,1,3.14,1,4.46.3h0c1.32-.66,2.28-1.08,2.85-1.94h0c.57-.86.82-1.16,2.14-.66h0c1.32.5,3.33,1.89,6.42,1.83h0A10.53,10.53,0,0,0,29.69,58h0c.83-1.2,1.64-2.22,2.63-.89h0c1,1.33,12.52,12.46,38.38,8.47h0a3.44,3.44,0,0,1,4.12,3.16h0a17.24,17.24,0,0,0,6.52,11.76h0c1.79,1.32,1.58,2.26.27,4.42h0c-1.32,2.16.23,6.32,1.39,6.58h0c1.83.41,1.78-2.68,1.61-3.51h0c-.16-.83-.6-3.2.75-3.31h0c1.35-.11,1.32,1.83,1.32,3.49h0c0,1.66-.33,3.16,1.15,3.82h0c1.48.66,3,.75,3.38-1.37h0c.41-2.12-.51-2.44-1.18-3.42h0c-.67-1-1.51-2-.2-2.93h0c1.32-.91,1.52,1.46,3.45,2.74h0c1.92,1.29,3.57-1,2.14-2.82h0C94,82.31,91.78,82,91.78,81h0c0-1,.68-.68,2.65-.9h0c1.2-.14,2.61-.5,2.14-2.39h0c-.36-2-1.94-1.52-6,.23h0c-3.66,1.58-4.88-3.26-4.88-4.75h0c0-1.5-.17-3-.19-6.56h0c0-3.56.66-3.61,2.83-3.57h0c9,.13,16.64.92,35,22.08h0c1.31,1.51,1.82,1.54,1.36-1.65h0c-.58-4-7.17-28.48-27.51-35.55h0c-.92-.32-3-.5-1-5.65h0c2-5.15-2.63-12.79-2.8-13.29h0c-.16-.5-.33-1.16,1.32-2h0c1.65-.83,2.75-1.47,2.45-4.23h0c-.25-2.28-2.52-2.44-3.77-1.39h0c-1.25,1-.56,3.77-1.65,3.63h0c-1.09-.13-.58-1.49-.36-3.6h0c.23-2.11-2-2.73-3.49-1.73h0c-1.5,1-1.24,2.9-.58,4.06h0c.66,1.16,2.07,1.84,1,2.93h0c-1.1,1.1-2.43-1-2.79-2h0c-.66-1.84-2.38-3.9-4.77-1.2h0c-1.9,2.15.92,2.84,2.79,3.92h0c1.87,1.09,1.8,2.81.49,2.81h0c-1.32,0-2.9-2.58-4,0h0a2.38,2.38,0,0,0,2.45,3.19h0c1.65-.33,3.33-1.38,5-.88h0c1.65.5,1.65,2,1.15,3.16h0c-.49,1.16-4.45,8.64-4.45,8.64h0s-.16.66-3.13.83h0c-3,.17-17.79,1.5-25.7-1h0c-7.91-2.49-7.91-3-6.42-4.82h0c1.48-1.83,2.8-4,4.61-3.49h0a9.54,9.54,0,0,1,4.64,3.91h0c.87,1.44,2.87,2.11,3.72.72h0c.78-1.28-1.45-2.22-2.1-2.81h0c-.65-.59-.82-1.49.66-1.49h0c1.48,0,3,1,4.13.87h0a1.63,1.63,0,0,0,1.14-2.63h0C65,33.1,62.32,33.31,61.15,33h0c-1.18-.3,0-1.45,3.46-1.83h0c3-.33,1.43-6-1.61-3.31h0c-1.23,1.07-1.51,1.48-2.5,1.81h0c-1,.33-1.79-.62-1-1.62h0c.82-1,2.9-1.6,2.48-2.75h0a1.86,1.86,0,0,0-3-.79h0c-1.59,1.2-2.71,1.65-2.88,3.8h0c-.09,1.14-.65,2-3.12,1.83h0c-2.47-.17-3.67-.56-5.72,1.51h0c-1.16,1.17-3,2.66-3.79,3.32h0c-.75.66-2.31.5-3.46-1h0C38.91,32.51,28.2,23,28.2,23h0a1.46,1.46,0,0,1,.49-2.33h0c1.65-1,8.5-3.94,9.72-4.49h0c2.05-.92,2.35-1.41.66-2h0C36.25,13.27,3.22,1,1.79.33h0A2.78,2.78,0,0,0,.71,0h0Z"/><path id="Fill-30" class="cls-3" d="M2.5,2.8S22,43.12,47.5,51.55c0,0,9,3.64,24.63,2.64a65.59,65.59,0,0,1-24-5C30.82,41.84,16.62,17.34,16.62,17.34a3.85,3.85,0,0,0,3.94-.5,5,5,0,0,0,2.31-3.23l-1.93-.93s.5,1.12-1.18,2.17a3,3,0,0,1-4.62-1.47,3.31,3.31,0,0,1,2-4.46S7.75,5.45,2.5,2.8"/><path id="Fill-32" class="cls-3" d="M61,58.16a191.94,191.94,0,0,0,20.36,1.5c8.55,0,12.85.17,19.71,2.8,14.25,5.46,24.55,23.91,23.08,21.26S118.27,68.9,108.42,63s-14.29-6.44-26.11-6.11S61,58.16,61,58.16"/><path id="Fill-34" class="cls-3" d="M4.35,20s3-.24,3.76,1.94c.32.92.68,2.69-1.79,2.85,0,0-3.12-.17-1.81,1a4.15,4.15,0,0,0,4.74,0,2.88,2.88,0,0,0,.51-4.31C8.29,19.48,6,17,4.35,20"/></svg>